<svg xmlns="http://www.w3.org/2000/svg" viewBox="0 0 128 128">
  <style type="text/css">.cls-0 {fill:#FA5306;}
.cls-1 {fill:#101010;}
.cls-2 {fill:#FEFEFE;}</style>
  <path class="cls-0" d="m101 0.9h-74c-14.1 0-25.5 12-25.5 27.1v72.1c0 14.9 11.4 27.2 25.5 27.2h74c14 0 25.5-11.4 25.5-27.2v-72.1c0-15.1-11.5-27.1-25.5-27.1z"/>
  <path class="cls-1" d="m113 30.7c-1.5-3.3-4.2-9.7-13-10.4-6.6-0.4-11.4 3.2-18.5 10.8-1.7-3-3.7-5.5-5.5-7.2-3.6-3.3-8.1-5.7-14.3-5.7-11 0-24.7 6.1-33.8 14.2-5.2 4.6-11.9 12.8-12.1 21.5-0.1 7 4.7 13.6 8.1 16 1.6 1.3 3.3 2.2 4.8 2.7-1.7 2-4.7 5-5.9 5.9-1.5 1.1-6.2 4-6.3 11.1 0 2.8 0.8 5.8 2.8 8.6 3.2 4.9 7.4 9 13.4 9.1 5.6 0.1 9.4-2.9 13.2-7.4 2.6-2.9 6.2-7.6 7.2-9.3 2.2 3.3 5.7 6.9 10.9 7 2.9 0 5.7-0.9 7.6-3.7l0.1-0.2c1.3 3.8 3.5 6.5 5.6 8.7 2.9 3 6.7 5.1 12 5.2 5.4 0.1 9.7-1.7 13.3-4.8 3.3-2.8 5.9-7 5.9-12.2-0.1-5.8-4.3-12.3-11.2-12.3 1.1-7.2 5-16.6 14.8-34.4 2.2-3.9 3.3-8.2 0.9-13.2z"/>
  <path class="cls-2" d="m106.1 29.5c-1.5-2.3-4.5-3.7-7.7-3.4-3.9 0.4-7.1 3-13.8 10.6-4.9 5.7-9.6 12.6-12.9 17.6 2-8.3 3.8-15.1 3.4-20-0.5-6.4-6.6-10.6-13.5-10.4-9.3 0.2-21.3 5.8-29.6 12.7-5.2 4.5-10.4 10.6-10.5 17.8 0 4.9 3 10 8.8 10.4 5.6 0.4 8.6-2.8 7.5-4.9-0.8-1.1-2.4-0.5-3.8-2.4-0.7-1.4-0.5-3.1 0-4.6 2.7-7 13.9-17 23.1-19.6 1.7-0.4 3.7 0.2 2.4 3.4-1.2 3.4-9.6 18.5-17.4 28.9-4.8 6.6-11.8 14.4-15.3 17-1.7 1.2-4.1 2-4.3 6.3 0 4 2.6 8.6 7.4 8.5 2.8 0 4.5-1.3 6.5-3.1 7.5-7.1 15.9-21.2 26.8-42.6-0.7 5.1-5.1 17.9-7.3 25.9-1.4 5.3 1.2 8.9 4.8 9.5 1.4 0.1 2.8-0.4 3.7-2.2 5.3-10.5 11.9-22.5 21.7-35.6-3.2 7.8-10.4 22.4-10.4 34.1 0 7.2 3.1 15.1 10.7 15.2 7 0.2 13.5-5.8 13.9-11.2 0.1-2.5-1.7-4.3-3.8-2.6-1 0.8-2.2 1.9-4.2 1.9-2.8 0-4.4-2.3-4.3-7.1 0.5-12.2 7.9-27.9 17.6-43.9 1.3-2.2 1.7-4.4 0.5-6.2z"/>
</svg>
