<svg xmlns="http://www.w3.org/2000/svg" viewBox="0 0 150 75">
  <style type="text/css">.cls-0 {fill:#FC5D23;}
.cls-1 {fill:#0F0F0F;}
.cls-2 {fill:#FFFFFF;}</style>
  <path class="cls-0" d="m137.9 2h-125.7c-5.2 0-9.5 4.4-9.5 9.6v50.4c0 5 3.9 10.3 9.3 10.3h125.9c5.1 0 9.1-4.3 9.1-10.3v-49.7c0-5.3-4-10.3-9.1-10.3z"/>
  <path class="cls-1" d="m138.1 0.6h-125.9c-5.7 0-10.8 4.9-10.8 11v50.4c0 6 4.3 12.2 10.6 12.2h126.1c5.9 0 10.4-5.1 10.4-12.2v-50.1c0-5.9-4.7-11-10.4-11.3zm7.1 61.3c0 4.2-3.3 8-7.3 8.5h-125.9c-4.1 0-7.2-3.5-7.2-8v-50.2c0-4 3.6-8.1 7.6-8.1h125.5c4.2 0 7.4 3.5 7.4 8.2l-0.1 49.6z"/>
  <path class="cls-1" d="m139.8 39.5c-0.6-0.6-1.1-1.8-2-2.7 0.8-2.7-0.4-5.4-2.2-7.2-0.8-0.8-1.3-2.1-2.8-3.1-0.7-0.5-1.4-0.8-1.7-0.9-0.2-0.1-0.1 0-0.2-0.2-0.8-1.6-1.9-2.6-2.5-3.5-1.5-2.7-4.5-4.6-8.8-3.8-0.6 0.1-0.7-0.2-0.9-0.4l-1.6-1.7c-2.5-4.1-8.1-5.8-11.7-3.4-1.5 1.2-3.9 4.5-5 6.7-3.7 0.9-6.7 0.3-8.6 3.7-0.2 0.3-0.7 0.4-0.9 0.2-2.3-1.5-5.4-2.3-8.9-1.6-0.4 0-0.9-0.1-0.9-0.8 0-2.7-1.6-5-2.8-6.2-2.6-4.2-8.5-7.2-13.9-4.6-2.3 1-5.4 3.8-7.3 6.2-0.2 0.4-0.7 0.4-1 0.2l-1.5-1.6c-2.2-3.2-5.7-6.7-13.3-6.8-9-0.1-22.5 5.9-28.2 14.6-4.8 7-3.6 12.8-0.5 16.7l0.9 1.1c1.1 1.4 2.6 3.2 4.1 3.9 0.3 0.3 0.3 0.1 0.4 0.4 1 0.6-0.9 1.4-2.1 2.6-2.3 1.6-4.9 2.9-4.8 6.3 0 2.5 1.2 4.8 3 6.5l1.9 2c1.7 1.8 4.1 3.1 7 3.1 3.1 0.1 6.4-1.6 12.9-9.7 0.5-1 1.2-0.9 1.8 0 2.9 4 9 5.9 12.1 2.4l0.6-0.9c0.5-1.1 1-1.4 1.5-0.4 0.6 1.4 1.7 2.9 2.6 3.7l2 2.1c2 2.1 4.5 4 8.6 4 4.5 0.1 9-2.3 10.3-5 0.2-0.9 0.7-1.3 1.2-1.1 4.1 0.1 8.8-1.4 13-5.9 0.5-0.9 1.1-0.9 1.5-0.3l1.6 1.8c1.7 1.7 3.8 3.6 7.9 3.7 4.5 0.2 9.2-2.6 12.8-6 0.2-0.5 0.8-0.6 1.2-0.1l2 2.1c1.8 1.9 4 3.9 7.8 4 7 0.3 17.1-8 17.3-15.1-0.1-2.5-0.8-3.9-1.9-5z"/>
  <path class="cls-2" d="m74.3 14.5c-1.4-1.6-5.4-3.8-9.2-0.9-4.9 3.7-11.6 12-15.8 18.5 1.1-3.7 2.8-9.5 2.6-12.7-0.3-3.8-3.3-7.4-9.5-7.8-9.9-0.6-23 6.4-27.7 14.9-3.2 6.1-0.6 12.4 5.8 12.4 4.2 0 5.6-2.5 3.6-3.3-7.4-1.5 2-12.2 11.4-16.6 1.9-0.8 5.2-1.9 5.2-0.2 0 2.6-10.5 19.1-20.6 28.8-1.2 1.3-2.7 2.4-4.5 3.5-3.1 2 0.3 7.8 4.5 7.1 1.5-0.1 3.3-1.2 6.4-4.4 5.4-5.7 11.1-14.3 13.7-18.9l3.3-5.3c-1.3 6.3-5.6 15.8-6.3 18.5-0.8 3.8 4.5 6.8 6.8 4 1.6-2.6 8.1-14.6 15.9-22.7l0.8-1.4v-0.1s-7.3 12.6-7.2 22c0.1 7.6 4.4 9.7 8.2 9.6 5 0.1 9.4-3.6 7.8-5.9-0.4-0.2-0.8-0.2-1-0.1-1.8 0.5-6.1 0.9-6.1-6 0-6.6 6.1-18.5 12-27.5 1.1-1.6 1.5-3.4-0.1-5.5z"/>
  <path class="cls-2" d="m134.1 39.1c-1.2 0-4.5 5-8.7 6.6-1.3 0.5-2.3 0.3-1.5-2.1 1-2.2 3.8-6.7 7.5-11 1.1-1.5 0.5-3.6-2.8-4.1-2-0.4-4-0.5-4.9-1.8 0.5-1.1 1.7-2.3 0.9-3.8-1.7-2.9-7.7-2.3-8.4 3.6-0.1 0.9 0.3 2.6 0.4 2.9-2.1 4.2-9 13.1-14.2 16-2 1-3 0.7-2.8-1 0.5-3.5 6-11.9 8-16.4l5.8-0.5c2.1-0.1 3.7-5.4 1-5.3h-2.8l2-2.8c2.3-3.3-3.7-6-6.2-3.8-1.3 1.4-3.3 4.6-5 7.4-2 0.1-4.9 0.5-6.3 0.8-2.2 0.6-3 5.3-0.2 5.3l3-0.3-1.8 3.3c-1.2 0.8-3.5 2.3-5.7 3 1.5-8.5-3.8-10.7-7-10.2-6.8 0.5-13.3 8.2-15.8 13.2-4.1 8.8-1.7 15 4.9 15.4 6.4 0.3 12.4-6 14.9-10.1l1.6-3.3 3.9-1.6c-1.8 3.6-4.3 11.4 0.5 13.9 2.3 1.1 5.1 1.2 8.7-0.9 5.5-3.1 11.8-11.4 16.5-19.5l2.8 1.1c-2 3-6.9 9.3-6.9 14.3 0 4 3.1 6.2 7 5.6 5.9-0.6 13.4-9.4 13.7-11.9 0.3-1.2-0.8-2-2.1-2zm-58.2 7.5c-2.9-0.4-1.4-6.7 2.2-11 0.5 3 2.5 4.5 5 5-1.5 2.9-5.1 6.3-7.2 6zm9.7-10.7c-3.5-0.8-2.2-5.9-0.5-5.9 2 0 1.5 3.9 0.5 5.9z"/>
  <path class="cls-1" d="m85.6 30c-1.7 0-3.4 4.9 0 5.9 1-2 1.5-5.9 0-5.9z"/>
</svg>
