<svg xmlns="http://www.w3.org/2000/svg" viewBox="0 0 150 150">
<!-- SVG created with Arrow, by QuiverAI (https://quiver.ai) -->
  <style type="text/css">.cls-0 {fill:#1E1F22;stroke:#000000;stroke-width:0.25;stroke-miterlimit:10;}
.cls-1 {fill:#FFFFFF;}</style>
  <path class="cls-0" d="m141 76.4c2.3-4.4 0.1-11.1-6-11.4h-0.2l-0.2-0.1h-0.2l0.3 0.1 0.1-0.1-0.1-0.5c-0.3-2-2.2-6.9-8.8-6.9h-1.3c-0.8 0-1.7 0.1-2.6 0.2-0.5-2.3-2.8-6.9-8.7-6.9-7.2 0-10.6 4.4-11 8.8-2.9 0.6-4.9 0.8-8.5 4.4-1.4-0.7-3.2-2.3-7.7-2.3-1.5 0-3 0.1-5.1 0.6 1-1.2 2.1-2.9 2.1-6.5 0-5-4.2-10.7-11.5-10.8-6.3 0-11.2 3.4-15.6 7.8-1-3.9-3.9-8.8-12.9-8.9-11.2 0-22.4 4.5-31.2 12.1-5.5 4.7-8 9.1-8 15.9 0 3.6 2.2 9.5 6.1 11.4l0.2 0.4-0.1 0.6c-3.5 1.3-6.5 3.4-6.5 8.3 0 2.9 1.4 5.7 3.9 7.7 2.1 2 4.9 3.7 8.6 3.7 4.6 0 10.4-3.5 14.2-9.1l0.4-0.9 0.3-0.6 0.5 0.4c1.3 1.3 2.8 2.8 5.8 2.8 2.3 0 3.7-0.4 5.4-1.7l0.3-0.1 0.2 0.2c0.7 4.4 4.5 10.5 13.4 10.5 6.2 0 9.8-2.4 13.1-6.5l0.2-0.4h0.4c1.6 0.7 3.3 1.1 6.3 1.1 4.9 0 9.1-1.8 13.3-5.4l0.2-0.4 0.4 0.4c2.1 2.7 5.4 5 10.1 5 4.2 0 8.5-1.4 12.1-3.9l1.9-1.3 0.3-0.2 0.1-0.2-0.1 0.2 0.1-0.1 0.1-0.3h0.4l0.1 0.1c1.8 3.7 5.3 6.8 10.3 6.8 8.2 0 20.5-8.1 20.6-16.8 0-3.2-2.4-6.3-5.5-7.2z"/>
  <path class="cls-1" d="m139.7 80.1c-2.7 0-3.8 5.3-9.5 6.4-1.5 0.3-1.8-0.6-0.8-2.9 1.7-3.7 7.1-10 7.1-12s-1.1-2.7-2.4-2.7c-2 0-4.2 0.8-7.2 0.7 1.5-2.7 2.8-3.6 2.7-5.5-0.2-1.6-1.5-2.4-3.7-2.4-2.5 0-7.8 1.3-12 1.8 1.7-2.6 3-4.1 3-5.6 0-1.3-1.2-2.5-3.2-2.5-6.3 0-5.7 5.2-8.6 9-2.5 0-8-0.1-8.2 3.5 0 1 0.8 2.5 2.2 2.5l2.3-0.4c-1.8 3.1-4.3 4.8-7.8 6.4 0.4-2.8 0.3-10.7-8-10.7-8 0-19.9 8.2-19.9 19.7 0 4.2 3.3 8.1 8.9 8.1 6 0 13.3-4.4 17.5-12.4 1.6-0.5 3-1.1 4.4-2.1-3.8 8.1-4.6 13.9 2.5 13.9 6.9 0 13.5-5.2 16.6-8.3 3.1-3 5.8-6.7 7.5-9.7 0.8 0.5 2.3 0.5 4.3 0.2-3.3 5.5-9 10-9 13.5 0 2.8 2.2 5.1 5.7 5.1 5.8 0 17-7.6 17.1-12.1 0-1-0.6-1.5-1.5-1.5zm-52.2-2.6c-2.9-0.5-4.9-2.9-4.9-5 0-1.5 1-3.1 3-3.2 4 0 3.5 5.8 1.9 8.2z"/>
  <path class="cls-1" d="m72.1 49c-9.2 0-18.4 11.6-27.5 24.7 2.1-9.3 6.5-16.1 6.5-20.1 0-2.7-2.7-5.6-8-5.7-10.7 0-22.5 5.1-28.7 11.4-3.3 3.1-6 6.3-6 12.1 0 2.6 1.7 5 3.2 6.3 1 1.6 3 2.4 4.3 2.4 1.7 0 4-2.2 4-3.7 0-1.4-2.8 0.2-2.8-3.3 0-6.4 14.5-17 22.8-17.4h0.5c-10 7.9-16 20.4-21.4 26.4-2.3 2.5-4.4 5-7.4 6.5-2.2 1-3.9 0.7-3.9 3.4 0 2.4 2.4 4.7 5.2 4.7 11.8 0.2 20-22.8 28.6-33.3-1.9 6.3-7.9 21-7.9 24.2 0 1.4 1 2.8 3 2.8 2.8 0 4.8-2.5 6.8-5 5-6.5 11.2-15.3 18.7-22.3-3.5 7.6-14.4 23.3-14.4 28.8 0 3.8 2.4 7 7.9 7 5 0 9.5-3.3 9.5-6.3 0-0.9-0.2-1.9-0.7-1.9-0.8 0.7-1.4 0.7-2 0.7-1.8 0-3-1.5-3-2.8 0-6.7 12.7-25.6 17.1-33 0.6-1 1-1.7 1-3-0.1-2-2.9-3.6-5.4-3.6z"/>
  <path class="cls-0" d="m85.7 69.7c-1.3 0-2.6 0.9-2.6 2.9s1.6 4.3 4.3 4.8c1.2-2 2.2-7.7-1.7-7.7z"/>
  <path class="cls-0" d="m74.6 83.9c0 1.6 0.5 2.8 2.5 2.8 2.5 0 6.3-2.6 7.9-5.3-4.3 0-6.6-3.5-6.6-7-1.7 2-3.8 6.5-3.8 9.5z"/>
  <path class="cls-0" d="m110.6 68.6c-2.6 4.8-8 14-8 16.8 0 0.7 0.4 1.1 1 1.1 5-0.4 11.1-5.6 14.3-11.9-0.5-3 0.7-4.9 2.2-7.2-2.2 0.5-6.5 1.2-9.5 1.2z"/>
</svg>